<?xml version="1.0" encoding="UTF-8"?><svg id="Layer_1" xmlns="http://www.w3.org/2000/svg" xmlns:xlink="http://www.w3.org/1999/xlink" viewBox="0 0 201 78.52"><defs><style>.cls-1,.cls-2{fill:none;}.cls-3{fill:url(#linear-gradient);}.cls-4{mask:url(#mask);}.cls-5,.cls-6{fill:#fff;}.cls-7{fill:rgba(255,255,255,.2);}.cls-2{stroke:#fff;stroke-miterlimit:10;stroke-width:5px;}.cls-6{fill-rule:evenodd;}.cls-8{mask:url(#mask-2);}.cls-9{mask:url(#mask-1);}</style><mask id="mask" x="72.23" y=".77" width="59.39" height="76.98" maskUnits="userSpaceOnUse"><g id="mask-3"><path id="path-2" class="cls-6" d="m122.05,19.34c-.1-.61-.53-1.11-1.12-1.29-.59-.19-1.23-.04-1.67.39l-8.5,8.55-6.73-12.72c-.27-.54-.83-.89-1.44-.89s-1.17.34-1.44.89l-3.65,6.95-9.23-17.09c-.74-1.39-2.83-1.02-3.08.53l-8.87,56.68,23.76,13.29c1.5.82,3.31.82,4.8,0l23.97-13.29-6.81-42Z"/></g></mask><mask id="mask-1" x="63.2" y="0" width="78.8" height="78.52" maskUnits="userSpaceOnUse"><g id="mask-3-2"><path id="path-2-2" class="cls-6" d="m122.05,19.34c-.1-.61-.53-1.11-1.12-1.29-.59-.19-1.23-.04-1.67.39l-8.5,8.55-6.73-12.72c-.27-.54-.83-.89-1.44-.89s-1.17.34-1.44.89l-3.65,6.95-9.23-17.09c-.74-1.39-2.83-1.02-3.08.53l-8.87,56.68,23.76,13.29c1.5.82,3.31.82,4.8,0l23.97-13.29-6.81-42Z"/></g></mask><mask id="mask-2" x="76.33" y="3.27" width="52.54" height="71.98" maskUnits="userSpaceOnUse"><g id="mask-3-3"><path id="path-2-3" class="cls-6" d="m122.05,19.34c-.1-.61-.53-1.11-1.12-1.29-.59-.19-1.23-.04-1.67.39l-8.5,8.55-6.73-12.72c-.27-.54-.83-.89-1.44-.89s-1.17.34-1.44.89l-3.65,6.95-9.23-17.09c-.74-1.39-2.83-1.02-3.08.53l-8.87,56.68,23.76,13.29c1.5.82,3.31.82,4.8,0l23.97-13.29-6.81-42Z"/></g></mask><linearGradient id="linear-gradient" x1="-145.97" y1="287.49" x2="-145.47" y2="287.13" gradientTransform="translate(16058.95 43150.34) scale(109.5 -150.04)" gradientUnits="userSpaceOnUse"><stop offset="0" stop-color="#fff" stop-opacity=".1"/><stop offset="1" stop-color="#fff" stop-opacity="0"/></linearGradient></defs><g id="Group-26"><g id="logo_lockup_firebase_vertical"><g id="_Group_"><g class="cls-4"><g id="_Group_2"><g><g id="_Group_3"><path id="_Path_" class="cls-2" d="m76.33,61.35l8.91-56.68c.25-1.55,2.34-1.92,3.08-.53l9.19,17.09,3.65-6.95c.28-.54.84-.88,1.46-.88s1.17.34,1.46.88l6.69,12.72-34.44,34.35Z"/><g id="_Group_4"><polygon id="Shape" class="cls-5" points="104.2 33.92 97.47 21.23 76.33 61.35 104.2 33.92"/></g></g><g id="_Group_5"><g id="_Group_6"><path id="_Path_2" class="cls-2" d="m128.87,61.35l-6.81-42c-.1-.61-.53-1.11-1.12-1.29-.59-.19-1.23-.04-1.67.39l-42.93,42.9,23.76,13.29c1.5.82,3.31.82,4.8,0l23.97-13.29Z"/></g></g><path id="_Compound_Path_" class="cls-7" d="m122.05,19.34c-.1-.61-.53-1.11-1.12-1.29-.59-.19-1.23-.04-1.67.39l-8.5,8.55-6.73-12.72c-.27-.54-.83-.89-1.44-.89s-1.17.34-1.44.89l-3.65,6.95-9.23-17.09c-.74-1.39-2.83-1.02-3.08.53l-8.87,56.68h-.04l.04.04.25.12,34.15-34.11,8.54-8.51c.44-.43,1.08-.58,1.67-.39.59.19,1.02.69,1.12,1.29l6.73,41.59.08-.04-6.81-42Zm-45.64,41.92l8.82-56.19c.25-1.55,2.34-1.92,3.08-.53l9.19,17.09,3.65-6.95c.28-.54.84-.88,1.46-.88s1.17.34,1.46.88l6.57,12.43-34.23,34.15Z"/></g></g></g><g class="cls-9"><polygon id="_Path_4" class="cls-1" points="63.2 0 142 0 142 78.52 63.2 78.52 63.2 0"/></g><g class="cls-8"><path id="_Path_5" class="cls-3" d="m122.05,19.34c-.1-.61-.53-1.11-1.12-1.29-.59-.19-1.23-.04-1.67.39l-8.5,8.55-6.73-12.72c-.27-.54-.83-.89-1.44-.89s-1.17.34-1.44.89l-3.65,6.95-9.23-17.09c-.74-1.39-2.83-1.02-3.08.53l-8.87,56.68,23.76,13.29c1.5.82,3.31.82,4.8,0l23.97-13.29-6.81-42Z"/></g></g></g></g></svg>